<?xml version="1.0" encoding="utf-8"?>
<!-- Generator: Adobe Illustrator 16.0.0, SVG Export Plug-In . SVG Version: 6.00 Build 0)  -->
<!DOCTYPE svg PUBLIC "-//W3C//DTD SVG 1.1//EN" "http://www.w3.org/Graphics/SVG/1.1/DTD/svg11.dtd">
<svg version="1.1" id="Layer_1" xmlns="http://www.w3.org/2000/svg" xmlns:xlink="http://www.w3.org/1999/xlink" x="0px" y="0px"
	 width="500px" height="500px" viewBox="0 0 500 500" enable-background="new 0 0 500 500" xml:space="preserve">
<rect y="1" fill="#333333" width="500" height="500"/>
<g>
	<path fill="#FFFFFF" d="M12.415,223.158v-18.565h128.78c0,14.57,0,28.905,0,43.71h-18.33l-0.705-25.38H53.07v53.58h70.5v19.035
		h-70.5v54.755h22.325v18.801c-20.21,0-43.005,0-63.215,0v-18.801h20.445V223.158H12.415z"/>
	<path fill="#FFFFFF" d="M206.054,250.418c35.485,0,60.396,24.91,60.396,60.865c0,35.25-25.38,59.926-60.396,59.926
		c-34.78,0-60.16-24.676-60.16-59.926C145.894,275.328,171.509,250.418,206.054,250.418z M206.289,268.043
		c-23.735,0-41.125,17.391-41.125,43.24c0,24.439,17.155,41.83,40.89,41.83c23.97,0,41.125-17.391,41.36-41.83
		C247.414,285.434,229.554,268.043,206.289,268.043z"/>
	<path fill="#FFFFFF" d="M387.712,317.393h-4.465l-59.456-83.66v116.795h19.506v18.565c-20.21,0-40.421,0-60.865,0v-18.565h20.915
		V223.393h-20.681v-18.8h45.12l58.046,84.601l57.34-84.601h44.885v18.8h-20.445v127.135h20.445v18.565c-20.21,0-40.185,0-60.395,0
		v-18.565h19.739V234.203L387.712,317.393z"/>
</g>
<polygon fill="#FFFFFF" points="310.004,-0.766 206.347,315.366 97.244,1.072 "/>
<path fill="#00C6CF" stroke="#F2F2F2" stroke-width="2" stroke-miterlimit="10" d="M206.347,315.366l14.358-43.791
	c0,0-29.568-0.024-29.56,0S206.347,315.366,206.347,315.366z"/>
<g>
</g>
<g>
</g>
<g>
</g>
<g>
</g>
<g>
</g>
<g>
</g>
<g>
</g>
<g>
</g>
<g>
</g>
<g>
</g>
<g>
</g>
<g>
</g>
<g>
</g>
<g>
</g>
<g>
</g>
</svg>
